<?xml version="1.0" encoding="UTF-8" standalone="no"?>
<!DOCTYPE svg PUBLIC "-//W3C//DTD SVG 1.1//EN" "http://www.w3.org/Graphics/SVG/1.1/DTD/svg11.dtd">
<svg version="1.1" xmlns="http://www.w3.org/2000/svg" xmlns:xlink="http://www.w3.org/1999/xlink" preserveAspectRatio="xMidYMid meet" viewBox="0 0 200 200" width="200" height="200"><defs><path d="M199 100C199 154.64 154.64 199 100 199C45.36 199 1 154.64 1 100C1 45.36 45.36 1 100 1C154.64 1 199 45.36 199 100Z" id="bLbxfcdsa"></path><path d="M100 100C44.2 100 13.2 100 7 100C7 48.63 48.64 7 100 7C100 19.4 100 50.4 100 100Z" id="c2j7gPVEX"></path><path d="M100 100C100 44.2 100 13.2 100 7C151.36 7 192.99 48.63 193 100C180.6 100 149.6 100 100 100Z" id="eaY3HE0OS"></path><path d="M100 100C155.8 100 186.8 100 193 100C192.99 151.36 151.36 192.99 100 193C100 180.6 100 149.6 100 100Z" id="c1bng4iikG"></path><path d="M100 100C100 155.8 100 186.8 100 193C48.64 192.99 7 151.36 7 100C19.4 100 50.4 100 100 100Z" id="b3aqlkqxvB"></path><path d="M150 100C150 127.6 127.59 150 100 150C72.4 150 50 127.6 50 100C50 72.4 72.4 50 100 50C127.59 50 150 72.4 150 100Z" id="bEkBKWK4n"></path><path d="M80.35 72.5C76.01 72.5 72.5 76.01 72.5 80.35C72.5 84.28 72.5 115.71 72.5 119.64C72.5 123.98 76.01 127.5 80.35 127.5C84.28 127.5 115.71 127.5 119.64 127.5C123.98 127.5 127.5 123.98 127.5 119.64C127.5 115.71 127.5 84.28 127.5 80.35C127.5 76.01 123.98 72.5 119.64 72.5C111.78 72.5 84.28 72.5 80.35 72.5ZM84.28 111.78C84.28 109.61 86.04 107.85 88.21 107.85C90.38 107.85 92.14 109.61 92.14 111.78C92.14 113.95 90.38 115.71 88.21 115.71C86.04 115.71 84.28 113.95 84.28 111.78ZM84.28 88.21C84.28 86.04 86.04 84.28 88.21 84.28C90.38 84.28 92.14 86.04 92.14 88.21C92.14 90.38 90.38 92.14 88.21 92.14C86.04 92.14 84.28 90.38 84.28 88.21ZM96.07 100C96.07 97.83 97.83 96.07 100 96.07C102.17 96.07 103.93 97.83 103.93 100C103.93 102.17 102.17 103.92 100 103.92C97.83 103.92 96.07 102.17 96.07 100ZM107.85 111.78C107.85 109.61 109.61 107.85 111.78 107.85C113.95 107.85 115.71 109.61 115.71 111.78C115.71 113.95 113.95 115.71 111.78 115.71C109.61 115.71 107.85 113.95 107.85 111.78ZM107.85 88.21C107.85 86.04 109.61 84.28 111.78 84.28C113.95 84.28 115.71 86.04 115.71 88.21C115.71 90.38 113.95 92.14 111.78 92.14C109.61 92.14 107.85 90.38 107.85 88.21Z" id="aPULBV6MU"></path></defs><g><g><g><use xlink:href="#bLbxfcdsa" opacity="1" fill="#201c29" fill-opacity="1"></use></g><g><use xlink:href="#c2j7gPVEX" opacity="1" fill="#ff3860" fill-opacity="1"></use><g><use xlink:href="#c2j7gPVEX" opacity="1" fill-opacity="0" stroke="#201c29" stroke-width="10" stroke-opacity="1"></use></g></g><g><use xlink:href="#eaY3HE0OS" opacity="1" fill="#23d160" fill-opacity="1"></use><g><use xlink:href="#eaY3HE0OS" opacity="1" fill-opacity="0" stroke="#201c29" stroke-width="10" stroke-opacity="1"></use></g></g><g><use xlink:href="#c1bng4iikG" opacity="1" fill="#ffdd57" fill-opacity="1"></use><g><use xlink:href="#c1bng4iikG" opacity="1" fill-opacity="0" stroke="#201c29" stroke-width="10" stroke-opacity="1"></use></g></g><g><use xlink:href="#b3aqlkqxvB" opacity="1" fill="#00d1b2" fill-opacity="1"></use><g><use xlink:href="#b3aqlkqxvB" opacity="1" fill-opacity="0" stroke="#201c29" stroke-width="10" stroke-opacity="1"></use></g></g><g><use xlink:href="#bEkBKWK4n" opacity="1" fill="#201c29" fill-opacity="1"></use></g><g><use xlink:href="#aPULBV6MU" opacity="1" fill="#ffa500" fill-opacity="1"></use><g><use xlink:href="#aPULBV6MU" opacity="1" fill-opacity="0" stroke="#000000" stroke-width="1" stroke-opacity="0"></use></g></g></g></g></svg>